# xmcd
#
# Track frame offsets:
#	150
#	17135
#	43359
#	69961
#	85436
#	104689
#	145327
#	177944
#	196004
#
# Disc length: 3132 seconds
#
# Revision: 1
# Processed by: cddbd v1.5.2PL0 Copyright (c) Steve Scherf et al.
# Submitted via: audiograbber 1.83.01
#
DISCID=7e0c3a09
DTITLE=Black Coffee - Blues In My Bone
DYEAR=2006
DGENRE=Blues Rock
TTITLE0=Spicy Hot Black Coffee
TTITLE1=Blues In My Bone
TTITLE2=Fields Of Corn
TTITLE3=My System's Breaking Down
TTITLE4=Dust In The Wind
TTITLE5=Angel Wings
TTITLE6=Don't Pick The Pretty Ones
TTITLE7=Someone Gonna Get Hurt
TTITLE8=Help Me
EXTD=
EXTT0=
EXTT1=
EXTT2=
EXTT3=
EXTT4=
EXTT5=
EXTT6=
EXTT7=
EXTT8=
PLAYORDER=
